# xmcd CD database file
#
# Track frame offsets:
#	150
#	26917
#	45306
#	70455
#	90685
#	110717
#	134002
#	153965
#	176829
#	191842
#
# Disc length: 2834 seconds
#
# Revision: 0
# Processed by: cddbd v1.5.2PL0 Copyright (c) Steve Scherf et al.
# Submitted via: CDex 1.50
#
DISCID=920b100a
DTITLE=Marilyn Scott - Every Time We Say Goodbye
DYEAR=2008
DGENRE=Jazz
TTITLE0=Every Time We Say Goodbye
TTITLE1=I Got Lost In His Arms
TTITLE2=Lonely Town
TTITLE3=Detour Ahead
TTITLE4=Do You Know The Way To San Jose?
TTITLE5=Autumn In New York
TTITLE6=I Love Paris
TTITLE7=Cry Me A River
TTITLE8=Caravan
TTITLE9=Somewhere
EXTD=YEAR: 2008
EXTT0=
EXTT1=
EXTT2=
EXTT3=
EXTT4=
EXTT5=
EXTT6=
EXTT7=
EXTT8=
EXTT9=
PLAYORDER=
